<svg xmlns="http://www.w3.org/2000/svg" viewBox="0 0 1828.17 373.3">
    <defs>
        <style>.cls-3{opacity:0.3;}.cls-1,.cls-2{fill:#6c9ed8;}.cls-2{opacity:0.5;}</style>
    </defs>
    <title>backgroundSlesh</title>
    <g id="Слой_2" data-name="Слой 2">
        <g class="cls-3" id="Слой_1-2" data-name="Слой 1">
            <path class="cls-1"
                  d="M438,252.38C417,206.74,591.59,35,774.32,42.83,901.52,48.28,913,135.62,1081.7,157.62c129.91,16.93,243.9-19.1,288.79-35.75,107.43-39.84,95.66-71.18,195-98.31C1684.84-9,1828.17,1.68,1828.17,1.68h0c-193,42.77-208.87,48.53-208.87,48.53-162,58.68-134.37,167.39-251.38,200.87-68.76,19.66-92.67-13.76-464.71-128.44C784.17,86,729.61,71.8,683.1,99.13,614.6,139.41,627.18,232.34,548.38,263,506,279.45,447.78,273.74,438,252.38Z"/>
            <path class="cls-2"
                  d="M184.27,293.75c-21-45.63,153.63-217.38,336.37-209.54C647.84,89.66,659.3,177,828,199c129.91,16.94,243.9-19.1,288.79-35.74,107.43-39.84,95.66-71.18,195-98.31,119.32-32.59,262.66-21.88,262.66-21.88h0c-193,42.76-208.88,48.53-208.88,48.53-162,58.67-134.36,167.39-251.38,200.86-68.75,19.67-92.66-13.75-464.7-128.43-119-36.7-173.61-50.85-220.11-23.51-68.5,40.27-55.93,133.21-134.72,163.83C252.3,320.82,194.1,315.11,184.27,293.75Z"/>
            <path class="cls-2"
                  d="M1.72,353.16c-21-45.63,153.63-217.38,336.37-209.54,127.2,5.45,138.66,92.79,307.38,114.78,129.91,16.94,243.9-19.1,288.79-35.74,107.43-39.84,95.66-71.18,195-98.31,119.32-32.58,262.66-21.88,262.66-21.88h0C1199,145.24,1183.06,151,1183.06,151c-162,58.67-134.36,167.39-251.38,200.86C862.93,371.53,839,338.11,467,223.43c-119-36.69-173.61-50.85-220.11-23.51-68.5,40.27-55.93,133.21-134.72,163.83C69.75,380.23,11.55,374.53,1.72,353.16Z"/>
        </g>
    </g>
</svg>