<svg xmlns="http://www.w3.org/2000/svg" viewBox="0 0 1638.49 920.48">
    <defs>
        <style>.cls-1,.cls-2{fill:#a01010;}.cls-2{opacity:0.5;}.cls-3{opacity:0.8;}</style>
    </defs>
    <title>formbackground</title>
    <g id="Слой_2" data-name="Слой 2">
        <g class="cls-3" id="Слой_3" data-name="Слой 3">
<!--            <path class="cls-1"-->
<!--                  d="M402.4,236.63c12.55-48.63,256.42-71.47,393.13,50,95.17,84.58,48.88,159.53,165.78,283.16,90,95.19,201.14,139.26,246.45,154.71,108.45,37,119.13,5.25,213.29,47,113.08,50.12,217.44,149,217.44,149h0c-176.6-88.73-192.58-94.32-192.58-94.32C1283.25,769.3,1236,871,1124.15,823.08,1058.43,794.89,1061,753.88,845,430,775.93,326.32,742.57,280.88,689.25,272.7c-78.55-12.06-127.5,67.93-207.93,41.9C438,300.59,396.52,259.4,402.4,236.63Z"/>-->
            <path class="cls-2"
                  d="M179.61,108.46C192.16,59.82,436,37,572.73,158.5,667.9,243.08,621.61,318,738.51,441.65c90,95.19,201.14,139.26,246.45,154.72,108.45,37,119.13,5.25,213.29,47,113.09,50.11,217.44,149,217.44,149h0C1239.09,703.57,1223.11,698,1223.11,698c-162.66-56.85-209.9,44.89-321.76-3.08-65.72-28.18-63.15-69.2-279.11-393.11C553.13,198.15,519.77,152.7,466.45,144.52c-78.54-12.05-127.5,67.94-207.93,41.91C215.24,172.42,173.73,131.23,179.61,108.46Z"/>
            <path class="cls-2"
                  d="M.56,39.2C13.11-9.44,257-32.27,393.69,89.24c95.16,84.58,48.88,159.52,165.77,283.15,90,95.2,201.15,139.27,246.46,154.72,108.45,37,119.12,5.25,213.28,47,113.09,50.12,217.44,149,217.44,149h0c-176.59-88.74-192.58-94.32-192.58-94.32-162.65-56.86-209.9,44.88-321.75-3.09-65.73-28.18-63.15-69.2-279.12-393.11C374.09,128.89,340.72,83.44,287.41,75.26,208.86,63.21,159.9,143.2,79.47,117.17,36.19,103.16-5.32,62,.56,39.2Z"/>
        </g>
    </g>
</svg>