<svg xmlns="http://www.w3.org/2000/svg" viewBox="0 0 100.09 114.15"><defs><style>.cls-1,.cls-9{fill:#a01010;}.cls-2{fill:#d3d3d3;}.cls-3{fill:#1d1d1b;}.cls-4{fill:#fb0707;}.cls-5{fill:#a8a8a8;}.cls-6{fill:#242731;}.cls-7{fill:#ecf1f4;}.cls-8{fill:#423642;}.cls-9{font-size:21px;font-family:Calibri;letter-spacing:-0.02em;}.cls-10{letter-spacing:-0.03em;}.cls-11{letter-spacing:-0.03em;}.cls-12{letter-spacing:-0.02em;}.cls-13{letter-spacing:-0.02em;fill:#000;}</style></defs><title>logo2</title><g id="Слой_2" data-name="Слой 2"><g id="Слой_1-2" data-name="Слой 1"><path class="cls-1" d="M46,40.36S34.63,28.69,10.69,27.75l-.93-3.93S37.71,25.49,46,40.36Z"/><path class="cls-2" d="M46,38.29s-9.22-13.71-32.92-16.1l-.75-3.77S34.94,20.56,46,38.29Z"/><path class="cls-3" d="M84.73,29.29a202.86,202.86,0,0,0-6.67,36C66.75,67.94,55.24,72.15,46,79.4c0-11.29,0-37.88,0-37.88a53.49,53.49,0,0,1,14.59-8.16A66.68,66.68,0,0,1,84.73,29.29Z"/><path class="cls-1" d="M46,40.36s11.36-11.67,35.3-12.61l.93-3.93S54.26,25.49,46,40.36Z"/><path class="cls-2" d="M46,38.29s9.23-13.71,32.93-16.1l.75-3.77S57,20.56,46,38.29Z"/><path class="cls-4" d="M41.45,17.56l-1.65-.71a.77.77,0,0,1-.46-.56L39,14.52a.78.78,0,0,0-1.35-.36l-1.18,1.36a.79.79,0,0,1-.68.26L34,15.57a.77.77,0,0,0-.75,1.17l.92,1.55a.8.8,0,0,1,0,.72l-.75,1.64a.77.77,0,0,0,.88,1.08l1.75-.4a.8.8,0,0,1,.7.19l1.33,1.22a.78.78,0,0,0,1.3-.5l.16-1.8a.77.77,0,0,1,.4-.6L41.53,19A.77.77,0,0,0,41.45,17.56Z"/><path class="cls-4" d="M67.38,7.1l-2.57.74a1.16,1.16,0,0,1-1.06-.21l-2.07-1.7a1.16,1.16,0,0,0-1.89.86L59.7,9.47a1.16,1.16,0,0,1-.53.94l-2.25,1.44a1.16,1.16,0,0,0,.23,2.07l2.52.91a1.14,1.14,0,0,1,.73.79l.68,2.59a1.16,1.16,0,0,0,2,.42l1.64-2.12a1.13,1.13,0,0,1,1-.44l2.67.15a1.16,1.16,0,0,0,1-1.81L67.93,12.2a1.18,1.18,0,0,1-.12-1.08l1-2.49A1.15,1.15,0,0,0,67.38,7.1Z"/><path class="cls-4" d="M47.52,24.16l-1.33.26a.56.56,0,0,1-.52-.16l-1-1a.59.59,0,0,0-1,.35L43.54,25a.59.59,0,0,1-.31.45l-1.2.63a.59.59,0,0,0,0,1.05l1.23.57a.61.61,0,0,1,.34.44l.22,1.33a.59.59,0,0,0,1,.3l.93-1a.57.57,0,0,1,.51-.18l1.34.2a.59.59,0,0,0,.6-.87l-.66-1.19a.57.57,0,0,1,0-.54l.6-1.22A.58.58,0,0,0,47.52,24.16Z"/><path class="cls-4" d="M50.63,4.67,48.9,3.59a.91.91,0,0,1-.42-.71l-.09-2A.88.88,0,0,0,46.94.21L45.38,1.52a.86.86,0,0,1-.8.18l-2-.54a.88.88,0,0,0-1,1.18l.77,1.89a.88.88,0,0,1-.08.82l-1.12,1.7a.89.89,0,0,0,.8,1.37L44,8a.87.87,0,0,1,.75.33L46,9.89a.88.88,0,0,0,1.54-.34l.49-2A.89.89,0,0,1,48.57,7l1.91-.72A.88.88,0,0,0,50.63,4.67Z"/><path class="cls-5" d="M53.82,14.48a.79.79,0,1,1-.79-.8A.79.79,0,0,1,53.82,14.48Z"/><path class="cls-5" d="M29.94,10.22a.8.8,0,1,1-.79-.79A.8.8,0,0,1,29.94,10.22Z"/><circle class="cls-5" cx="73.45" cy="3.85" r="1.63"/><circle class="cls-5" cx="52.38" cy="5.11" r="1.26"/><path class="cls-1" d="M46,51.07s.08,0,.15-.14a.1.1,0,0,1,0,0l.09-.12a7.88,7.88,0,0,1,2.81-2.6,6.76,6.76,0,0,1,5.42-.51,6.42,6.42,0,0,1,4.41,4.61,8.51,8.51,0,0,1,.23,2.8,11.52,11.52,0,0,1-.69,3.53,12.15,12.15,0,0,1-2.95,4.23c-1.17,1.18-2.44,2.25-3.7,3.34S49,68.58,47.65,69.82l-1.44,1.32a.46.46,0,0,1-.23.06Z"/><path class="cls-1" d="M53.89,57.75h0V62.4c0,.75,0,1.49,0,2.23,0,.13,0,.3-.09.34s-.18-.13-.21-.25a3.36,3.36,0,0,1-.14-.78,5.21,5.21,0,0,0-.22-1.43.85.85,0,0,0-.72-.58c-.26,0-.4.26-.52.52a3.3,3.3,0,0,0-.21.65,14.94,14.94,0,0,0-.26,2.51c0,1,0,2,0,3a6,6,0,0,1-.32,1.81,1.17,1.17,0,0,1-1.36.8,2.7,2.7,0,0,1-1.5-2.34c-.45-2.67-.57-5.4-.83-8.11a5.11,5.11,0,0,0-.24-1.2c-.12-.35-.51-.23-.51.16h0a7.81,7.81,0,0,0,.43,2.61,2.47,2.47,0,0,1,.1.29A8.57,8.57,0,0,1,47.5,65c0,1.46,0,2.92,0,4.38a4.72,4.72,0,0,0,1.12,3.47,1.9,1.9,0,0,0,1.61.69c.73-.12,1.14-.77,1.38-1.64a10,10,0,0,0,.25-3.27c0-.73-.1-1.45-.14-2.18a3.78,3.78,0,0,1,.15-1.57c.14-.37.28-.81.62-.86s.47.39.64.7A9.61,9.61,0,0,0,53.75,66c.42.57,1,.46,1.29-.24a3.74,3.74,0,0,0,.17-.62c.07-.36.13-.73.23-1.08h0a7.37,7.37,0,0,0,.28-2V60.23C55.73,58.86,54.9,57.75,53.89,57.75Z"/><path class="cls-4" d="M55.7,58.7c0-.54-.32-1-.72-1l-7.6,0c-.23,0-.56-.12-.67,0a.74.74,0,0,0-.05.42,1.53,1.53,0,0,0,.25.77,3.88,3.88,0,0,1,.53,1.8c.26,2.71.38,5.44.83,8.11a2.7,2.7,0,0,0,1.5,2.34,1.17,1.17,0,0,0,1.36-.8,6,6,0,0,0,.32-1.81c.1-1,0-2,0-3a14.4,14.4,0,0,1,.23-2.36,4.23,4.23,0,0,1,.31-1c.11-.21.24-.39.45-.37a.85.85,0,0,1,.72.58,3.74,3.74,0,0,1,.2,1.21,6.91,6.91,0,0,0,.21,1.22c0,.13.38.38.51.33s.53.16,1-2.86a.67.67,0,0,1,0-.19,7.82,7.82,0,0,0,.52-2.52Z"/><path class="cls-6" d="M16.4,83.24l4.38-6.38L70.13,39.64l0,0,0,0,0,0,0,0,0,0,0,0,0,0,0,0,0,0,0,0h0l0,0,0,0,0,0,0,0,0,0,0,0,0,0,0,0,0,0,0,0,0,0,0,0-4-4.29-.16-.16.1-.68.92-1.16,6,3.69.45.62.64.87h0A36.25,36.25,0,0,1,86.15,31.3a2,2,0,0,0,.07.23,2.94,2.94,0,0,0,.25.46,2.94,2.94,0,0,1-.25-.46,2,2,0,0,1-.07-.23,2,2,0,0,1,2.29-2.55,2,2,0,0,1,1.34.82.61.61,0,0,1,.07.1,2,2,0,0,1-.51,2.76,2.08,2.08,0,0,1-1.53.37,2,2,0,0,1-.74-.27,36.69,36.69,0,0,1-10,9l.15.2L78.16,43l1.7,6.79-1.38.52-.81-.12h0l0-.07-.12-.23-.12-.22-.12-.23-.13-.23L77,49l-.12-.23-.12-.23-.12-.23L76.49,48l-.12-.23-.12-.23-.12-.22L76,47.13l-.13-.23-.12-.23-.12-.22-.12-.23L75.39,46l-.12-.23-.12-.22L75,45.31l-.12-.23-.13-.23L44.83,66.1,39,70.23l-5.69,4-3.08,2.19L23.82,81l-7,2.12-.37.11"/><polygon class="cls-2" points="24.21 77.53 30.24 76.45 33.32 74.27 27.17 75.37 24.21 77.53 24.21 77.53"/><polygon class="cls-5" points="16.4 83.24 23.82 81.01 30.24 76.45 24.21 77.53 16.4 83.24 16.4 83.24"/><polygon class="cls-2" points="38.22 67.29 32.63 71.37 39.01 70.23 44.83 66.1 38.22 67.29 38.22 67.29"/><polygon class="cls-5" points="27.17 75.37 33.32 74.27 39.01 70.23 32.63 71.37 27.17 75.37 27.17 75.37"/><polygon class="cls-5" points="76.47 43.66 74.39 40.82 38.22 67.29 44.83 66.1 76.47 43.66 76.47 43.66"/><polygon class="cls-2" points="72.32 37.99 20.78 76.86 16.4 83.24 74.39 40.82 72.32 37.99 72.32 37.99"/><path class="cls-1" d="M75.82,39.78l1.27,1.73a36.69,36.69,0,0,0,10-9,2.2,2.2,0,0,1-.6-.54L75.82,39.78Z"/><path class="cls-4" d="M86.47,32a2.16,2.16,0,0,1-.32-.69,36.25,36.25,0,0,0-11.57,6.78l1.24,1.7L86.47,32Z"/><path class="cls-2" d="M72.67,39.49a2.09,2.09,0,1,0,2.47,3.38l-2.47-3.38Z"/><polygon class="cls-7" points="73.77 41.26 73.75 41.29 73.78 41.27 73.77 41.26 73.77 41.26"/><polygon class="cls-2" points="73.78 41.27 75.82 39.78 74.58 38.08 73.49 36.59 67.53 32.9 66.61 34.06 72.56 40.09 73.75 41.29 73.77 41.26 73.78 41.27 73.78 41.27"/><polygon class="cls-5" points="78.16 42.97 77.09 41.51 75.82 39.78 73.78 41.27 73.79 41.28 73.75 41.29 74.56 42.84 78.48 50.28 79.86 49.76 78.16 42.97 78.16 42.97"/><path class="cls-5" d="M88.86,30.24h0a.92.92,0,0,1-1.22,1.32,1,1,0,0,1-.26-.24l-.92.67a2.2,2.2,0,0,0,.6.54,2,2,0,0,0,2.71-3l-.92.67Z"/><path class="cls-2" d="M87.25,31a.89.89,0,0,1,.34-1,.9.9,0,0,1,1.27.2l.92-.67a2,2,0,0,0-3.63,1.73,2.16,2.16,0,0,0,.32.69l.92-.67a.8.8,0,0,1-.14-.31Z"/><path class="cls-1" d="M87.65,31.56a.92.92,0,0,0,1.22-1.32h0l-1.47,1.08a1,1,0,0,0,.26.24Z"/><path class="cls-4" d="M87.59,30a.89.89,0,0,0-.34,1,.8.8,0,0,0,.14.31l1.47-1.08a.9.9,0,0,0-1.27-.2Z"/><polygon class="cls-5" points="66.51 34.73 66.61 34.06 73.75 41.29 78.48 50.28 77.63 50.15 73.11 41.73 66.51 34.73 66.51 34.73"/><path class="cls-8" d="M7.24,29.29a202.91,202.91,0,0,1,6.67,36C25.22,67.94,36.73,72.15,46,79.4V41.52A53.34,53.34,0,0,0,31.4,33.36,66.68,66.68,0,0,0,7.24,29.29Z"/><path class="cls-4" d="M46,51.07s-.07,0-.14-.14a.1.1,0,0,0,0,0l-.09-.12a7.88,7.88,0,0,0-2.81-2.6,6.72,6.72,0,0,0-5.42-.51,6.42,6.42,0,0,0-4.41,4.61,8.48,8.48,0,0,0-.23,2.8,11.52,11.52,0,0,0,.69,3.53,12.15,12.15,0,0,0,2.95,4.23c1.17,1.18,2.44,2.25,3.69,3.34s2.79,2.41,4.15,3.66l1.44,1.32a.46.46,0,0,0,.22.06Z"/><text class="cls-9" transform="translate(0 107.58)">S<tspan class="cls-10" x="9.17" y="0">c</tspan><tspan x="17.39" y="0">arl</tspan><tspan class="cls-11" x="38.14" y="0">e</tspan><tspan class="cls-12" x="47.99" y="0">t</tspan><tspan class="cls-13" x="54.54" y="0" xml:space="preserve"> Book</tspan></text></g></g></svg>